PathFileType	4	(X/Y/Z)	40_1_53_p1_0-276_filt_butterworth.trc
DataRate	CameraRate	NumFrames	NumMarkers	Units	OrigDataRate	OrigDataStartFrame	OrigNumFrames
60.0	60.0	7	27	m	60.0	0	276
Frame#	Time	RHip			RKnee			RAnkle			RBigToe			RSmallToe			RHeel			LHip			LKnee			LAnkle			LBigToe			LSmallToe			LHeel			Neck			Head			Nose			RShoulder			RElbow			RWrist			RThumb			RIndex			RPinky			LShoulder			LElbow			LWrist			LThumb			LIndex			LPinky			
		X1	Y1	Z1	X2	Y2	Z2	X3	Y3	Z3	X4	Y4	Z4	X5	Y5	Z5	X6	Y6	Z6	X7	Y7	Z7	X8	Y8	Z8	X9	Y9	Z9	X10	Y10	Z10	X11	Y11	Z11	X12	Y12	Z12	X13	Y13	Z13	X14	Y14	Z14	X15	Y15	Z15	X16	Y16	Z16	X17	Y17	Z17	X18	Y18	Z18	X19	Y19	Z19	X20	Y20	Z20	X21	Y21	Z21	X22	Y22	Z22	X23	Y23	Z23	X24	Y24	Z24	X25	Y25	Z25	X26	Y26	Z26	X27	Y27	Z27	
0	0.0	0.3145618262227603	0.7728650573601076	0.7547691460626104	0.3139496334064692	0.2974634694971849	0.8125565821858648	0.31779775439763386	-0.11000043531383036	0.8607065236539164	0.3080225410707133	-0.14940648444231133	0.7263102104909425	0.37157625718980924	-0.1425039045500405	0.7345631293376723	0.2728298555776096	-0.19473992223121475	0.9386739384016113	0.11992960855392987	0.7604519702581765	0.7651882724065956	0.10476756351818164	0.30948047595246486	0.8254974688896574	0.09173021823392208	-0.1019193083392517	0.8584190625807975	0.1369144192643429	-0.11126740129509563	0.6800709819298774	0.0742201362465581	-0.13392633197275028	0.725462548715449	0.0848030711171607	-0.19157079078959674	0.9411805559794578	0.24686953689805605	1.2927176203332789	0.7603909597202072	0.25300048137301523	1.5366571745163327	0.7201584502072296	0.2617668713827328	1.4122324685263505	0.6291753591059321	0.37473341590321685	1.206344132956943	0.7660109341551242	0.4204276245785227	0.9020366936783618	0.7515158285397492	0.32088532193345903	0.7322472870558495	0.6259258702461241	0.25082669111939737	0.6421639271703881	0.6041149686356021	0.24845708173562733	0.6357699584380206	0.6061806103631981	0.2764968583970379	0.6409424987875946	0.5948853070994571	0.08777797284490195	1.2116088747333944	0.7539464843140817	0.09582549186545969	0.9392384344452743	0.7020553215984651	0.2136669931309155	0.7495434218356992	0.5665393468685673	0.29822513800341016	0.6800791451091099	0.5739871769028727	0.3000428884668345	0.6559812576498814	0.5651145480365707	0.23908737463793248	0.6314507784556884	0.6133927964896835	
1	0.0166666666666666	0.3154029817045816	0.7754922410345013	0.7498439277879645	0.3157102331557988	0.29958686063329537	0.8112257312248254	0.3178175951904756	-0.10993336858448038	0.8606890684343901	0.30779455962132984	-0.1487300009767584	0.7273969534986213	0.37062496235368	-0.14770625487525899	0.7427964476901178	0.2747708217639709	-0.19114865691102717	0.9372990508291158	0.1230376716479287	0.7640333016966172	0.758383744822798	0.10486542215558967	0.30947511037921815	0.8264931517217833	0.09142750254595551	-0.10035048301858819	0.8563566729096971	0.1369302286382284	-0.11479597086954964	0.6858671396065219	0.07544180630700632	-0.13104926019620047	0.7243159871633984	0.08542296576353049	-0.1910981276183351	0.9346796279463417	0.2468558255130197	1.2927643112338802	0.7604060708479838	0.2530703027130535	1.536723635882612	0.7201699453179721	0.2618105891135412	1.412237386850469	0.6291734192240275	0.3726622627976807	1.2064883693103425	0.7668541685366579	0.4200054462984371	0.9041256841015505	0.7590939619326486	0.32262116021665815	0.7300425232709138	0.6287739538739482	0.24929035561336832	0.6405623791733792	0.6096576779561964	0.24788308283256094	0.6348734925571562	0.6095884261792828	0.2721449348554071	0.6405860356745164	0.597522059380908	0.08776244617554495	1.2113590243782992	0.7474119049432278	0.09434032317195569	0.9366344005139566	0.703137678100556	0.21446652237748678	0.7498767775507725	0.5644978363597684	0.2986877171568103	0.6794314582391687	0.5708208957525227	0.2982952429904967	0.6557390522196171	0.565460114815494	0.2394518658295803	0.6317203464058934	0.612509049579929	
2	0.0333333333333333	0.3161194988019912	0.7776371256635326	0.7457437538229519	0.3172415752867458	0.30129693550893133	0.8102353041902066	0.3178346699598623	-0.1098736461725611	0.8606714565971061	0.30779753458252496	-0.14884791748065673	0.727746276863346	0.3695488047954411	-0.15093904169583308	0.7478296208586257	0.2762452421210773	-0.1882394420716787	0.9364354931673093	0.12565458155408807	0.7669601453722529	0.7527310428913531	0.10495049559315796	0.3094914531632428	0.8273044763512255	0.09119924103921252	-0.09927970844695434	0.85502736382924	0.1371756103986799	-0.11711415525536514	0.6897165314798998	0.07689829785485765	-0.1283450380297341	0.7223665961946201	0.08598462904575532	-0.19092100569247142	0.9296338093151039	0.2468487531064532	1.2928021409371822	0.7604016092219426	0.2531219064143978	1.5367770689517788	0.7201499951008983	0.2618511229776274	1.4122440734788784	0.6291498049554356	0.37142658037709947	1.2065591135726004	0.7669686867935073	0.41975759673626056	0.9053502486877947	0.7638941667050337	0.32350128156081054	0.7280690660457415	0.631612097708094	0.24746202722726346	0.6390855593812116	0.6130660317342396	0.24695297236700672	0.6337539779038769	0.6130309877730593	0.2681951303114857	0.6395222867632614	0.6006968259857607	0.08757917537145381	1.2110286515763111	0.7431590331921474	0.09292090580535588	0.9351843874651558	0.702968516161942	0.21434548029934883	0.7497032396727104	0.5645111679681257	0.29817134948687707	0.6785980834676405	0.56948896416944	0.29610388590379155	0.6549740353353206	0.5673198539293349	0.23959908975617086	0.6318153014478005	0.6121344602766867	
3	0.05	0.3167207452808306	0.7793356032917328	0.7424043512104025	0.31855726775925286	0.3026323214483194	0.8095448220543002	0.31784914827877053	-0.10982088192218907	0.8606538052684476	0.30795223187704746	-0.14946044332831102	0.7275323576310052	0.3684263092170613	-0.15259108530353127	0.7503042508796939	0.277292888670962	-0.18595935113463224	0.9360363734595449	0.12782099416594428	0.7692865309005869	0.7481335320331843	0.10502365707290189	0.30952752253515375	0.8279457528526495	0.09103897542511206	-0.09865767881941315	0.8543560258859707	0.13757754886857282	-0.1184470134094669	0.6919747268548065	0.07846001432464252	-0.12591134981153326	0.7199094549738477	0.0864906292687787	-0.19100186289767027	0.9259088230813292	0.24684745465679575	1.292832199029387	0.7603818746781092	0.2531580426109134	1.5368181413218214	0.7201094985425791	0.2618872710506276	1.412253117692532	0.6291105425007069	0.3708865814614652	1.2065711710925557	0.7665590185525983	0.41964822791655504	0.9058660598604664	0.7664417457472776	0.3236684579657554	0.7262918979703032	0.6344276764306228	0.24548060721233428	0.637750805595722	0.6147645647718323	0.2457667458870841	0.6325156667777768	0.6163534641640592	0.2646355459246685	0.6379388858434409	0.6042623359682204	0.08732640730225993	1.2106538410776677	0.740767363949244	0.09160830586206951	0.9345994903239058	0.7019951726215565	0.21344971397323334	0.749070175272847	0.5662386819119807	0.29681386441839397	0.6775519076463976	0.5698405223556585	0.29351016848888073	0.6537491457748843	0.5704706245150015	0.23952269840968132	0.6317304860983555	0.6122698751521328	
4	0.0666666666666666	0.3172160889069413	0.780623565963634	0.7397614469931467	0.3196709185332625	0.30363164577568746	0.8091138057893984	0.31786119972017673	-0.10977468967748188	0.8606362315747973	0.30817941742764604	-0.15026778789402567	0.7269293728474884	0.3673360003205093	-0.1530512059901216	0.7508619397898206	0.2779535334356584	-0.1842554575213507	0.9360547997491758	0.12957756537703352	0.7710664878971225	0.7444945776692149	0.10508577983683685	0.30958133672556665	0.8284312913007208	0.09094024741507312	-0.09843508833102672	0.8542675496264344	0.13806302837078258	-0.11901960428877875	0.6929972950360381	0.07999735915089139	-0.12384587987977912	0.7172396426658147	0.08694353473754411	-0.1913031371195966	0.9233703922406028	0.24685106514248667	1.292855575096697	0.7603511670525103	0.2531814614364656	1.5368475205907286	0.7200593546295859	0.26191783140817776	1.4122651087723823	0.629061658060391	0.3709024788707701	1.2065393472190475	0.7658296934408568	0.41964149186388255	0.9058287900429375	0.7672620019497536	0.32326546143133167	0.7246760016345686	0.6372080647235955	0.24348499681983227	0.6365754556187476	0.6151778118710752	0.24442439894091247	0.6312628114784506	0.6194010243718143	0.26145428285435024	0.6360234667046656	0.608071318382492	0.08710238883759473	1.210270677632606	0.7398163921029213	0.0904435894385059	0.9345908041152412	0.7006649843183339	0.21192507047587195	0.748024951422517	0.5693397184096747	0.2947530913761446	0.676265817627312	0.5717247105132128	0.290555442027926	0.6521273223162007	0.5746892857094021	0.23921634378208886	0.6314607428745036	0.6129161407784429	
5	0.0833333333333333	0.31761489744616483	0.7815369057237675	0.7377507682140148	0.3205961355687176	0.3043335358152622	0.8089017763677935	0.3178709938570573	-0.10973468328255616	0.8606188526425379	0.30839985715706997	-0.15097016055210857	0.7261114995586848	0.3663564028077546	-0.15270822404737722	0.7501442896255045	0.2782669484371997	-0.18307483465329674	0.936443880079555	0.13096495108089215	0.7723540459773632	0.7417175452203686	0.10513773712697826	0.3096509139650967	0.8287754017701054	0.09089659872051464	-0.0985626311768573	0.8546868255971757	0.13855903322818502	-0.11905698685023018	0.6931398053283909	0.0813807357681349	-0.12224631257265806	0.7146522384352558	0.08734591375699509	-0.191787266243915	0.9218842397885096	0.24685871954196575	1.2928733587253136	0.7603137861811728	0.2531949130249202	1.5368658743564894	0.7200104623484909	0.2619416021259148	1.4122806359993834	0.6290091778350386	0.371334485425007	1.206478447300914	0.7649852410852096	0.4197015406028063	0.9053941116585783	0.7668802382028355	0.32243506395737914	0.7231863596285056	0.6399406372690741	0.24161409730100938	0.6355768472521228	0.61473030783407	0.24302592707661178	0.6300996643054905	0.6220188374158566	0.25863944225992624	0.6339636631365438	0.6119765022827808	0.08700536684708979	1.2099152459913625	0.7398856125415836	0.08946782263107456	0.9348694238641946	0.6994252880912084	0.20991739688399697	0.746614935193052	0.5734736176795499	0.29212685978491315	0.674712700262254	0.5749906688441379	0.28728105780308966	0.65017150373716	0.5797526966494454	0.23867367786537128	0.6310009142931882	0.6140741037277937	
6	0.1	0.3179265386643426	0.7821115146166655	0.736308041915837	0.32134652682556053	0.30477661889127067	0.8088682547617769	0.3178787002623888	-0.1097004765815293	0.8606017855980523	0.30837804511471345	-0.15073618475613412	0.7252475269949311	0.3655598500355868	-0.15213570087286618	0.7491699124767771	0.2782729056976192	-0.18236455595193324	0.937156722494036	0.13202380717105638	0.7732032347568122	0.7397058001075685	0.10518040218534148	0.3097342724843592	0.8289923943354691	0.09090157105285562	-0.09899100155196772	0.8555387443447394	0.13900686870562917	-0.11879616184358766	0.6927813290974508	0.08235076763009472	-0.12142925813296716	0.712658878469768	0.08770033463207512	-0.19241668815629043	0.9213160887206349	0.24686993528875883	1.2928859039986824	0.76027842985577	0.253204092336322	1.5368716046099118	0.7199993941858585	0.2619532091190616	1.4123047787731435	0.6289644344187584	0.3720103001008448	1.2063661199736169	0.7643775479897188	0.4197728775562011	0.9046507642594901	0.765981194765565	0.3213831211933457	0.721645272155447	0.6428418220253562	0.24007221828529685	0.6348602166636554	0.6140106187035531	0.24169197653212976	0.6292078859776197	0.6239290409621634	0.2560522907207415	0.63204133927268	0.6158740425319879	0.08725613534936505	1.2096378527063072	0.74042159786312	0.08878940334309234	0.9347759765851444	0.6992449105022497	0.20734172202561085	0.7447031617383613	0.5787544246968268	0.28890387806824425	0.6726426306499728	0.579933431138396	0.28342364920816115	0.6478864595158337	0.5854620660542774	0.23773776838490562	0.6302171194728757	0.6160634103273113	
